<mxfile host="app.diagrams.net" agent="Mozilla/5.0 (Macintosh; Intel Mac OS X 10.15; rv:131.0) Gecko/20100101 Firefox/131.0" version="24.7.17">
  <diagram id="prtHgNgQTEPvFCAcTncT" name="Page-1">
    <mxGraphModel dx="1853" dy="659" grid="1" gridSize="10" guides="1" tooltips="1" connect="1" arrows="1" fold="1" page="1" pageScale="1" pageWidth="827" pageHeight="1169" math="0" shadow="0">
      <root>
        <mxCell id="0" />
        <mxCell id="1" parent="0" />
        <mxCell id="dNxyNK7c78bLwvsdeMH5-19" value="Affe försäljningsprocess" style="swimlane;html=1;childLayout=stackLayout;resizeParent=1;resizeParentMax=0;horizontal=0;startSize=20;horizontalStack=0;" parent="1" vertex="1">
          <mxGeometry x="-700" y="394" width="820" height="520" as="geometry" />
        </mxCell>
        <mxCell id="dNxyNK7c78bLwvsdeMH5-20" value="Affe" style="swimlane;html=1;startSize=20;horizontal=0;" parent="dNxyNK7c78bLwvsdeMH5-19" vertex="1">
          <mxGeometry x="20" width="800" height="300" as="geometry" />
        </mxCell>
        <mxCell id="jPxzbFxAUlHFV_T5EtKn-10" style="edgeStyle=orthogonalEdgeStyle;rounded=0;orthogonalLoop=1;jettySize=auto;html=1;entryX=0.429;entryY=0.995;entryDx=0;entryDy=0;entryPerimeter=0;" edge="1" parent="dNxyNK7c78bLwvsdeMH5-20" source="jPxzbFxAUlHFV_T5EtKn-9" target="jPxzbFxAUlHFV_T5EtKn-12">
          <mxGeometry relative="1" as="geometry">
            <mxPoint x="65" y="109" as="targetPoint" />
          </mxGeometry>
        </mxCell>
        <mxCell id="jPxzbFxAUlHFV_T5EtKn-11" style="edgeStyle=orthogonalEdgeStyle;rounded=0;orthogonalLoop=1;jettySize=auto;html=1;exitX=1;exitY=0.5;exitDx=0;exitDy=0;exitPerimeter=0;" edge="1" parent="dNxyNK7c78bLwvsdeMH5-20" source="jPxzbFxAUlHFV_T5EtKn-9">
          <mxGeometry relative="1" as="geometry">
            <mxPoint x="125" y="172" as="targetPoint" />
          </mxGeometry>
        </mxCell>
        <mxCell id="jPxzbFxAUlHFV_T5EtKn-9" value="x" style="strokeWidth=2;html=1;shape=mxgraph.flowchart.decision;whiteSpace=wrap;" vertex="1" parent="dNxyNK7c78bLwvsdeMH5-20">
          <mxGeometry x="42.5" y="159" width="30" height="26" as="geometry" />
        </mxCell>
        <mxCell id="jPxzbFxAUlHFV_T5EtKn-17" style="edgeStyle=orthogonalEdgeStyle;rounded=0;orthogonalLoop=1;jettySize=auto;html=1;exitX=1;exitY=0.5;exitDx=0;exitDy=0;entryX=0.223;entryY=0.516;entryDx=0;entryDy=0;entryPerimeter=0;" edge="1" parent="dNxyNK7c78bLwvsdeMH5-20" target="jPxzbFxAUlHFV_T5EtKn-15">
          <mxGeometry relative="1" as="geometry">
            <mxPoint x="135" y="88.15384615384619" as="targetPoint" />
            <mxPoint x="105" y="88.5" as="sourcePoint" />
          </mxGeometry>
        </mxCell>
        <mxCell id="jPxzbFxAUlHFV_T5EtKn-12" value="Uppgradering" style="rounded=0;whiteSpace=wrap;html=1;" vertex="1" parent="dNxyNK7c78bLwvsdeMH5-20">
          <mxGeometry x="42.5" y="70.5" width="80" height="31" as="geometry" />
        </mxCell>
        <mxCell id="jPxzbFxAUlHFV_T5EtKn-16" style="edgeStyle=orthogonalEdgeStyle;rounded=0;orthogonalLoop=1;jettySize=auto;html=1;exitX=0.5;exitY=0;exitDx=0;exitDy=0;" edge="1" parent="dNxyNK7c78bLwvsdeMH5-20" source="jPxzbFxAUlHFV_T5EtKn-13" target="jPxzbFxAUlHFV_T5EtKn-15">
          <mxGeometry relative="1" as="geometry" />
        </mxCell>
        <mxCell id="jPxzbFxAUlHFV_T5EtKn-13" value="Ny beställning" style="rounded=0;whiteSpace=wrap;html=1;" vertex="1" parent="dNxyNK7c78bLwvsdeMH5-20">
          <mxGeometry x="122.5" y="159" width="80" height="31" as="geometry" />
        </mxCell>
        <mxCell id="jPxzbFxAUlHFV_T5EtKn-20" value="" style="edgeStyle=orthogonalEdgeStyle;rounded=0;orthogonalLoop=1;jettySize=auto;html=1;" edge="1" parent="dNxyNK7c78bLwvsdeMH5-20" source="jPxzbFxAUlHFV_T5EtKn-15" target="jPxzbFxAUlHFV_T5EtKn-19">
          <mxGeometry relative="1" as="geometry" />
        </mxCell>
        <mxCell id="jPxzbFxAUlHFV_T5EtKn-15" value="x" style="strokeWidth=2;html=1;shape=mxgraph.flowchart.decision;whiteSpace=wrap;" vertex="1" parent="dNxyNK7c78bLwvsdeMH5-20">
          <mxGeometry x="150" y="75.5" width="25" height="26" as="geometry" />
        </mxCell>
        <mxCell id="jPxzbFxAUlHFV_T5EtKn-19" value="Registrering" style="rounded=0;whiteSpace=wrap;html=1;" vertex="1" parent="dNxyNK7c78bLwvsdeMH5-20">
          <mxGeometry x="195" y="78.5" width="100" height="20" as="geometry" />
        </mxCell>
        <mxCell id="jPxzbFxAUlHFV_T5EtKn-27" style="edgeStyle=orthogonalEdgeStyle;rounded=0;orthogonalLoop=1;jettySize=auto;html=1;entryX=0.25;entryY=1;entryDx=0;entryDy=0;" edge="1" parent="dNxyNK7c78bLwvsdeMH5-20" source="jPxzbFxAUlHFV_T5EtKn-22" target="jPxzbFxAUlHFV_T5EtKn-23">
          <mxGeometry relative="1" as="geometry">
            <Array as="points">
              <mxPoint x="395" y="88" />
            </Array>
          </mxGeometry>
        </mxCell>
        <mxCell id="jPxzbFxAUlHFV_T5EtKn-29" style="edgeStyle=orthogonalEdgeStyle;rounded=0;orthogonalLoop=1;jettySize=auto;html=1;entryX=0.25;entryY=0;entryDx=0;entryDy=0;" edge="1" parent="dNxyNK7c78bLwvsdeMH5-20" source="jPxzbFxAUlHFV_T5EtKn-22" target="jPxzbFxAUlHFV_T5EtKn-28">
          <mxGeometry relative="1" as="geometry">
            <Array as="points">
              <mxPoint x="397" y="88" />
            </Array>
          </mxGeometry>
        </mxCell>
        <mxCell id="jPxzbFxAUlHFV_T5EtKn-22" value="+" style="strokeWidth=2;html=1;shape=mxgraph.flowchart.decision;whiteSpace=wrap;" vertex="1" parent="dNxyNK7c78bLwvsdeMH5-20">
          <mxGeometry x="350" y="75.5" width="25" height="26" as="geometry" />
        </mxCell>
        <mxCell id="jPxzbFxAUlHFV_T5EtKn-31" style="edgeStyle=orthogonalEdgeStyle;rounded=0;orthogonalLoop=1;jettySize=auto;html=1;exitX=1;exitY=0.75;exitDx=0;exitDy=0;" edge="1" parent="dNxyNK7c78bLwvsdeMH5-20" source="jPxzbFxAUlHFV_T5EtKn-23" target="jPxzbFxAUlHFV_T5EtKn-30">
          <mxGeometry relative="1" as="geometry" />
        </mxCell>
        <mxCell id="jPxzbFxAUlHFV_T5EtKn-23" value="Spel skickas" style="rounded=0;whiteSpace=wrap;html=1;" vertex="1" parent="dNxyNK7c78bLwvsdeMH5-20">
          <mxGeometry x="375" y="43" width="80" height="21" as="geometry" />
        </mxCell>
        <mxCell id="jPxzbFxAUlHFV_T5EtKn-26" style="edgeStyle=orthogonalEdgeStyle;rounded=0;orthogonalLoop=1;jettySize=auto;html=1;entryX=0;entryY=0.5;entryDx=0;entryDy=0;entryPerimeter=0;" edge="1" parent="dNxyNK7c78bLwvsdeMH5-20" source="jPxzbFxAUlHFV_T5EtKn-19" target="jPxzbFxAUlHFV_T5EtKn-22">
          <mxGeometry relative="1" as="geometry" />
        </mxCell>
        <mxCell id="jPxzbFxAUlHFV_T5EtKn-28" value="&lt;div&gt;Faktura skickas&lt;/div&gt;&lt;div&gt;+&lt;br&gt;&lt;/div&gt;" style="rounded=0;whiteSpace=wrap;html=1;" vertex="1" parent="dNxyNK7c78bLwvsdeMH5-20">
          <mxGeometry x="375" y="123" width="90" height="34" as="geometry" />
        </mxCell>
        <mxCell id="jPxzbFxAUlHFV_T5EtKn-35" style="edgeStyle=orthogonalEdgeStyle;rounded=0;orthogonalLoop=1;jettySize=auto;html=1;exitX=1;exitY=0.5;exitDx=0;exitDy=0;exitPerimeter=0;entryX=0;entryY=0.5;entryDx=0;entryDy=0;" edge="1" parent="dNxyNK7c78bLwvsdeMH5-20" source="jPxzbFxAUlHFV_T5EtKn-30" target="jPxzbFxAUlHFV_T5EtKn-33">
          <mxGeometry relative="1" as="geometry" />
        </mxCell>
        <mxCell id="jPxzbFxAUlHFV_T5EtKn-30" value="+" style="strokeWidth=2;html=1;shape=mxgraph.flowchart.decision;whiteSpace=wrap;" vertex="1" parent="dNxyNK7c78bLwvsdeMH5-20">
          <mxGeometry x="485" y="78.5" width="25" height="26" as="geometry" />
        </mxCell>
        <mxCell id="jPxzbFxAUlHFV_T5EtKn-32" style="edgeStyle=orthogonalEdgeStyle;rounded=0;orthogonalLoop=1;jettySize=auto;html=1;exitX=1;exitY=0.5;exitDx=0;exitDy=0;entryX=0.5;entryY=1;entryDx=0;entryDy=0;entryPerimeter=0;" edge="1" parent="dNxyNK7c78bLwvsdeMH5-20" source="jPxzbFxAUlHFV_T5EtKn-28" target="jPxzbFxAUlHFV_T5EtKn-30">
          <mxGeometry relative="1" as="geometry" />
        </mxCell>
        <mxCell id="jPxzbFxAUlHFV_T5EtKn-33" value="Transaktion klar" style="rounded=0;whiteSpace=wrap;html=1;" vertex="1" parent="dNxyNK7c78bLwvsdeMH5-20">
          <mxGeometry x="650" y="78.5" width="100" height="26" as="geometry" />
        </mxCell>
        <mxCell id="jPxzbFxAUlHFV_T5EtKn-8" style="edgeStyle=orthogonalEdgeStyle;rounded=0;orthogonalLoop=1;jettySize=auto;html=1;exitX=0.5;exitY=0;exitDx=0;exitDy=0;entryX=0.5;entryY=1;entryDx=0;entryDy=0;entryPerimeter=0;" edge="1" parent="dNxyNK7c78bLwvsdeMH5-19" source="jPxzbFxAUlHFV_T5EtKn-7" target="jPxzbFxAUlHFV_T5EtKn-9">
          <mxGeometry relative="1" as="geometry">
            <mxPoint x="129.71428571428578" y="276" as="targetPoint" />
          </mxGeometry>
        </mxCell>
        <mxCell id="jPxzbFxAUlHFV_T5EtKn-40" style="edgeStyle=orthogonalEdgeStyle;rounded=0;orthogonalLoop=1;jettySize=auto;html=1;entryX=0.5;entryY=1;entryDx=0;entryDy=0;" edge="1" parent="dNxyNK7c78bLwvsdeMH5-19" source="jPxzbFxAUlHFV_T5EtKn-38" target="jPxzbFxAUlHFV_T5EtKn-33">
          <mxGeometry relative="1" as="geometry" />
        </mxCell>
        <mxCell id="jPxzbFxAUlHFV_T5EtKn-42" value="" style="edgeStyle=orthogonalEdgeStyle;rounded=0;orthogonalLoop=1;jettySize=auto;html=1;" edge="1" parent="dNxyNK7c78bLwvsdeMH5-19" source="jPxzbFxAUlHFV_T5EtKn-28" target="jPxzbFxAUlHFV_T5EtKn-41">
          <mxGeometry relative="1" as="geometry" />
        </mxCell>
        <mxCell id="jPxzbFxAUlHFV_T5EtKn-47" value="" style="edgeStyle=orthogonalEdgeStyle;rounded=0;orthogonalLoop=1;jettySize=auto;html=1;" edge="1" parent="dNxyNK7c78bLwvsdeMH5-19" source="jPxzbFxAUlHFV_T5EtKn-23" target="jPxzbFxAUlHFV_T5EtKn-46">
          <mxGeometry relative="1" as="geometry">
            <Array as="points">
              <mxPoint x="330" y="53" />
              <mxPoint x="330" y="386" />
            </Array>
          </mxGeometry>
        </mxCell>
        <mxCell id="dNxyNK7c78bLwvsdeMH5-21" value="Kund" style="swimlane;html=1;startSize=20;horizontal=0;" parent="dNxyNK7c78bLwvsdeMH5-19" vertex="1">
          <mxGeometry x="20" y="300" width="800" height="220" as="geometry" />
        </mxCell>
        <mxCell id="jPxzbFxAUlHFV_T5EtKn-48" style="edgeStyle=orthogonalEdgeStyle;rounded=0;orthogonalLoop=1;jettySize=auto;html=1;entryX=0;entryY=0;entryDx=0;entryDy=0;" edge="1" parent="dNxyNK7c78bLwvsdeMH5-21" source="jPxzbFxAUlHFV_T5EtKn-7" target="jPxzbFxAUlHFV_T5EtKn-46">
          <mxGeometry relative="1" as="geometry" />
        </mxCell>
        <mxCell id="jPxzbFxAUlHFV_T5EtKn-7" value="Kunden beställer" style="rounded=0;whiteSpace=wrap;html=1;" vertex="1" parent="dNxyNK7c78bLwvsdeMH5-21">
          <mxGeometry x="25" y="86" width="110" height="26" as="geometry" />
        </mxCell>
        <mxCell id="jPxzbFxAUlHFV_T5EtKn-38" value="Kunden betalar" style="whiteSpace=wrap;html=1;rounded=0;" vertex="1" parent="dNxyNK7c78bLwvsdeMH5-21">
          <mxGeometry x="490" y="116" width="120" height="30" as="geometry" />
        </mxCell>
        <mxCell id="jPxzbFxAUlHFV_T5EtKn-43" style="edgeStyle=orthogonalEdgeStyle;rounded=0;orthogonalLoop=1;jettySize=auto;html=1;entryX=0;entryY=0.5;entryDx=0;entryDy=0;" edge="1" parent="dNxyNK7c78bLwvsdeMH5-21" source="jPxzbFxAUlHFV_T5EtKn-41" target="jPxzbFxAUlHFV_T5EtKn-38">
          <mxGeometry relative="1" as="geometry" />
        </mxCell>
        <mxCell id="jPxzbFxAUlHFV_T5EtKn-41" value="Kund mottar faktura" style="whiteSpace=wrap;html=1;rounded=0;" vertex="1" parent="dNxyNK7c78bLwvsdeMH5-21">
          <mxGeometry x="320" y="96" width="110" height="24" as="geometry" />
        </mxCell>
        <mxCell id="jPxzbFxAUlHFV_T5EtKn-46" value="Kund mottar spel" style="whiteSpace=wrap;html=1;rounded=0;" vertex="1" parent="dNxyNK7c78bLwvsdeMH5-21">
          <mxGeometry x="170" y="126" width="110" height="26" as="geometry" />
        </mxCell>
      </root>
    </mxGraphModel>
  </diagram>
</mxfile>
